# xmcd
#
# Track frame offsets:
#	150
#	22992
#	45797
#	58415
#	75865
#	85182
#	104195
#	114940
#	130270
#	145945
#	159767
#	171935
#	194777
#	206455
#	222885
#
# Disc length: 3098
#
# Revision: 1
# Processed by: cddbd v1.5.1PL0 Copyright (c) Steve Scherf et al.
# Submitted via: dBpowerAMP V4.0
# Normalized: r0:TDELIM( - )
#
DISCID=c80c180f
DTITLE=Various Artist - The Soul of Blues
DYEAR=1996
DGENRE=Soul
TTITLE0=The Edwin Hawkins singers - Oh Happy Day
TTITLE1=Dee Dee Bridgewater feat. Ray Charles - Till the next Somewhere
TTITLE2=Ben E. King - Don`t play that song
TTITLE3=Aretha Franklin - Call me
TTITLE4=Al Jarreau - Ain´t no sunshine
TTITLE5=Lena Horne - When I fall in love
TTITLE6=Wilson Pickett - Sweet Soul music
TTITLE7=Dionne Warwick - Walok on by
TTITLE8=The Temptations feat. Eddie Kendrics - Papa was a Rollin´Stone
TTITLE9=Billie Holiday - Blue moon
TTITLE10=Moonglows - Blue Velvet
TTITLE11=James Brown - For your precious  love
TTITLE12=Martha Reeves - Dancing in the street
TTITLE13=The Chi-lites - Oh Girl
TTITLE14=Lou Rawls - Sad song
EXTD=
EXTT0=
EXTT1=
EXTT2=
EXTT3=
EXTT4=
EXTT5=
EXTT6=
EXTT7=
EXTT8=
EXTT9=
EXTT10=
EXTT11=
EXTT12=
EXTT13=
EXTT14=
PLAYORDER=
